<svg id="_1656850" data-name="1656850" xmlns="http://www.w3.org/2000/svg" width="17.31" height="20" viewBox="0 0 17.31 20">
  <path id="_1656850-2" data-name="1656850" d="M17.306,19.343,15.786,4.867a.6.6,0,0,0-.592-.533H12.337V3.683a3.683,3.683,0,0,0-7.365,0v.651H2.115a.6.6,0,0,0-.592.533L0,19.343A.6.6,0,0,0,.595,20H16.714a.6.6,0,0,0,.592-.657ZM6.162,3.683a2.492,2.492,0,0,1,4.984,0v.651H6.162ZM1.256,18.81l1.4-13.285H4.972V6.836a.6.6,0,1,0,1.19,0V5.524h4.984V6.836a.6.6,0,1,0,1.19,0V5.524h2.321l1.4,13.285Zm0,0" transform="translate(0.001)"/>
</svg>
