<svg width="178" height="98" viewBox="0 0 178 98" fill="none" xmlns="http://www.w3.org/2000/svg">
<path d="M83.4351 78.3886C82.1351 80.1613 80.5692 82.7908 79.3284 85.243C78.8261 86.2475 78.3534 87.0452 78.2943 86.9862C78.2352 86.9271 78.117 85.568 78.0284 83.9726C77.9102 81.7863 77.7625 80.9295 77.3784 80.5158C77.083 80.1909 76.6693 80.0136 76.4625 80.0727C76.2557 80.1613 76.0193 80.1022 75.9012 79.925C75.783 79.7181 75.5466 79.7772 75.2512 80.0431C74.9557 80.2795 74.5421 80.5454 74.2762 80.634C74.0103 80.7227 73.3012 81.6976 72.6808 82.8203C71.4399 85.0362 70.7604 86.218 69.9036 87.7543C68.7218 89.852 65.6787 97.77 66.4764 96.6473C66.7127 96.3223 67.3627 95.5542 67.865 94.9042C68.3968 94.2837 68.9877 93.486 69.1945 93.1315C69.6968 92.2747 69.6672 92.6588 69.1354 94.0178C68.6922 95.1405 68.6922 95.1405 69.1945 94.4315C69.4899 94.0474 69.9627 93.4565 70.2581 93.1906C70.524 92.8951 70.7604 92.4815 70.7899 92.2747C70.7899 92.0974 70.9081 92.186 71.0263 92.4815C71.2035 92.9542 71.3513 92.836 71.8535 91.7429C72.2081 91.0338 73.0944 89.3793 73.833 88.0793L75.1921 85.7157L75.2216 86.8975C75.2216 87.5475 75.2216 88.6702 75.2216 89.4088C75.1921 91.2997 75.8421 93.486 76.6102 94.0178C77.6148 94.6974 78.8261 94.4315 79.2397 93.4269C79.4465 92.9838 79.5647 92.4815 79.4761 92.3633C79.3875 92.2451 79.5352 92.0383 79.8011 91.9497C80.067 91.8315 80.2147 91.5656 80.0965 91.2997C80.0079 91.0633 80.0374 90.9156 80.1852 91.0043C80.3329 91.0929 80.5988 90.7383 80.8056 90.2065C81.0124 89.7043 81.426 88.7884 81.7215 88.1975C82.0169 87.6066 82.2828 86.8975 82.2828 86.6316C82.2828 86.3657 82.4897 86.0703 82.726 85.9816C82.9624 85.8635 83.1101 85.6862 83.0215 85.568C82.7851 85.1839 84.1737 83.884 85.2078 83.5294C85.7691 83.3521 86.5668 83.2044 87.0396 83.2044H87.8373L86.7146 85.4794C85.1487 88.6407 83.9078 91.5951 83.3465 93.6042C82.8146 95.4951 82.7556 96.411 83.2578 95.3178C83.4646 94.9042 83.8487 94.2246 84.1737 93.8406L84.7055 93.1019L84.5282 94.0474C84.351 95.111 84.7941 95.3769 85.0896 94.4019C85.2373 93.9587 85.385 93.8701 85.6214 94.1065C86.035 94.5201 87.1873 93.2792 87.4532 92.0679C87.5714 91.5951 87.7782 91.2406 87.9259 91.3588C88.1918 91.5065 88.31 91.1224 88.2213 90.4134C88.1918 90.0588 89.0191 87.9316 89.1963 87.9316C89.2554 87.9316 89.2554 88.227 89.1963 88.5816C89.0781 89.2611 89.0781 89.2611 89.3736 88.5816C89.5213 88.1975 89.61 87.7839 89.5213 87.6361C89.4327 87.518 89.5509 87.3407 89.7577 87.2521C89.9349 87.193 90.644 86.0998 91.294 84.8589C92.6235 82.3181 92.6826 82.2885 96.2575 82.0522C97.0552 81.9931 96.8484 81.4317 96.0212 81.4317C95.5485 81.4317 95.2826 81.2545 95.2826 80.9886C95.2826 80.6931 95.6075 80.5454 96.3166 80.5454C96.878 80.5454 97.3507 80.3977 97.3507 80.2499C97.3507 80.0727 97.9711 79.9545 98.7688 79.925C100.098 79.8954 100.098 79.8954 99.1825 79.659C97.1734 79.1863 92.5349 79.3341 89.2259 79.9545C86.035 80.5749 84.5578 81.1363 83.8487 82.0226C83.6124 82.3181 83.4942 82.3476 83.4646 82.1113C83.4646 81.934 83.5828 81.6976 83.7305 81.609C83.8783 81.5204 84.0555 81.1658 84.1442 80.8408C84.2623 80.3386 84.2328 80.2795 83.8783 80.5749C83.3465 81.0181 83.3465 80.7227 83.9078 79.6886C84.1442 79.2159 84.2623 78.7727 84.1737 78.6841C84.0851 78.5954 84.1146 78.3295 84.2328 78.1227C84.4692 77.7682 84.676 77 84.5282 77C84.4987 77 83.9964 77.6205 83.4351 78.3886ZM84.7351 82.7613C84.6464 83.0272 84.4987 83.1749 84.4396 83.0862C84.351 82.9976 84.3805 82.8203 84.4987 82.6431C84.7646 82.1704 84.9419 82.259 84.7351 82.7613ZM74.0398 86.8384C73.7444 87.1043 73.7148 87.0748 73.8921 86.6612C73.9808 86.3657 74.158 86.218 74.2467 86.3066C74.3353 86.3953 74.2467 86.6316 74.0398 86.8384ZM71.7058 91.2406C71.499 91.4474 71.3513 91.477 71.3513 91.2997C71.3513 90.8861 71.7058 90.5315 71.9126 90.7383C71.9717 90.827 71.8831 91.0633 71.7058 91.2406Z" fill="#09B183"/>
<path d="M136.32 78.3886C135.02 80.1613 133.454 82.7908 132.214 85.243C131.711 86.2475 131.239 87.0452 131.18 86.9862C131.12 86.9271 131.002 85.568 130.914 83.9726C130.795 81.7863 130.648 80.9295 130.264 80.5158C129.968 80.1908 129.555 80.0136 129.348 80.0727C129.141 80.1613 128.905 80.1022 128.786 79.9249C128.668 79.7477 128.461 79.7772 128.166 80.0136C127.93 80.2204 127.457 80.5158 127.102 80.6931C126.777 80.8408 126.216 81.5204 125.861 82.1703C125.536 82.8203 124.798 84.1498 124.236 85.1248C122.493 88.2861 121.577 90.0884 121.577 90.502C121.577 90.827 121.252 90.8861 120.189 90.7383C118.121 90.4724 117.737 90.2952 118.475 89.9702C119.155 89.6747 117.146 89.8815 115.078 90.3247C113.364 90.6793 111.532 90.8861 111.532 90.7088C111.532 90.2065 112.98 88.4634 113.541 88.3452C113.896 88.227 114.191 88.0498 114.191 87.9316C114.191 87.7839 114.694 87.7248 115.314 87.8134C116.171 87.902 116.289 87.8725 115.816 87.6657C115.373 87.4293 115.609 87.3998 116.703 87.518C117.766 87.6361 118.328 87.5475 118.771 87.2225L119.362 86.7793L118.771 86.7498C118.446 86.7202 118.859 86.4839 119.657 86.218L121.134 85.7453L119.362 85.3907C118.239 85.1839 117.914 85.0362 118.446 85.0066C118.918 84.9771 119.214 84.8885 119.125 84.7703C119.007 84.6521 118.062 84.593 116.998 84.6226C115.934 84.6521 115.078 84.6226 115.078 84.5635C115.078 84.4748 115.403 84.0908 115.787 83.6771C116.289 83.1158 116.762 82.909 117.559 82.909C118.209 82.909 118.593 82.7908 118.475 82.6135C118.387 82.4363 118.416 82.3181 118.593 82.3181C118.741 82.3181 119.125 82.2294 119.421 82.1408C119.864 81.9931 119.864 82.0226 119.509 82.2885C119.125 82.5544 119.125 82.6135 119.598 82.6135C119.864 82.6135 120.1 82.4953 120.1 82.3476C120.1 82.1999 120.662 82.1113 121.371 82.1999C122.937 82.3181 125.123 82.0522 125.123 81.6976C125.123 81.5499 124.739 81.4317 124.236 81.4317C123.202 81.4317 123.025 80.8704 124.03 80.8113C124.561 80.7817 124.502 80.7227 123.793 80.5454C123.202 80.3977 123.084 80.309 123.498 80.2795C124.65 80.1908 123.291 79.6886 121.4 79.5113C119.657 79.3045 112.773 80.1318 109.996 80.8704C108.578 81.2249 108.519 81.8454 109.907 81.6681C110.469 81.609 110.941 81.6681 110.941 81.7863C110.941 81.9044 111.119 82.0226 111.325 82.0226C111.503 82.0226 111.857 82.1408 112.064 82.259C112.655 82.6431 111.237 84.918 110.025 85.5089C109.464 85.7748 109.021 86.218 109.021 86.4543C109.021 86.6907 108.637 87.193 108.164 87.5475C107.219 88.2861 107.455 88.4043 108.755 87.9316C109.198 87.7543 109.582 87.6657 109.641 87.6952C109.671 87.7543 109.375 88.4634 108.962 89.2611C107.987 91.2406 107.307 93.2201 107.514 93.6928C107.603 93.9292 107.987 94.3133 108.4 94.5792C109.021 94.9928 109.287 95.0223 110.41 94.6973C111.119 94.4905 111.739 94.2542 111.828 94.136C111.916 94.0474 112.359 93.9587 112.832 93.9292C113.275 93.8996 113.837 93.6337 114.073 93.3383C114.428 92.8656 114.516 92.8656 114.782 93.2496C114.93 93.486 115.078 93.5451 115.078 93.3974C115.078 93.2201 115.609 93.0724 116.259 93.0428C116.939 92.9837 118.18 92.7769 119.066 92.5406C119.952 92.3042 120.691 92.1565 120.691 92.1565C120.691 92.186 120.307 93.3383 119.805 94.7269C119.332 96.1155 119.155 96.9723 119.362 96.6473C119.598 96.3223 120.248 95.5541 120.75 94.9042C121.282 94.2837 121.873 93.486 122.08 93.1315C122.582 92.2747 122.552 92.6588 122.021 94.0178C121.577 95.1405 121.577 95.1405 122.08 94.4314C122.375 94.0474 122.848 93.4565 123.143 93.1906C123.409 92.8951 123.646 92.4815 123.675 92.2747C123.675 92.0974 123.793 92.186 123.911 92.4815C124.089 92.9542 124.236 92.836 124.739 91.7429C125.093 91.0338 125.98 89.3793 126.718 88.0793L128.077 85.7157L128.107 86.8975C128.107 87.5475 128.107 88.6702 128.107 89.4088C128.048 92.4815 129.289 94.6678 130.884 94.3428C131.298 94.2837 131.534 94.3133 131.475 94.4314C131.15 94.9632 134.016 95.0223 136.557 94.5792C137.384 94.4314 137.502 94.4905 137.325 94.9042C137.148 95.3473 137.207 95.3473 137.886 94.9042C138.3 94.6383 139.009 94.3428 139.482 94.2542C139.925 94.1655 140.427 94.0178 140.604 93.8996C140.782 93.811 141.077 93.6928 141.225 93.6928C141.668 93.6633 145.922 92.2451 146.1 92.0679C146.188 91.9792 146.454 91.8906 146.691 91.8315C146.927 91.7724 147.193 91.5951 147.222 91.4474C147.281 91.2997 147.606 91.1815 147.931 91.1815C148.788 91.1815 151.595 88.1975 151.831 87.0452C152.363 84.3271 151.654 82.6726 149.468 81.4317C148.64 80.9295 147.725 80.5454 147.488 80.5454C147.222 80.5454 146.897 80.309 146.72 80.0431C146.484 79.5704 145.952 79.5409 141.697 79.5999L136.97 79.6886L137.059 78.8613C137.118 78.4182 137.207 78.0341 137.236 78.0341C137.266 78.0341 137.325 77.7977 137.384 77.5023C137.443 77.2364 137.443 77 137.413 77C137.384 77 136.882 77.6204 136.32 78.3886ZM139.393 80.8113C139.629 81.0476 139.6 81.1363 139.334 81.1363C139.127 81.1363 139.038 81.2545 139.127 81.4022C139.216 81.5499 139.009 81.7272 138.654 81.8158C138.3 81.934 137.916 81.8749 137.798 81.6976C137.561 81.284 137.177 81.4022 136.734 81.9931C136.527 82.2885 136.379 82.3181 136.35 82.1113C136.35 81.934 136.498 81.6681 136.645 81.5795C136.823 81.4908 136.941 81.1954 136.941 80.959C136.941 80.7227 136.823 80.6045 136.645 80.6931C136.498 80.7817 136.35 80.7522 136.35 80.5749C136.35 80.1908 138.979 80.3977 139.393 80.8113ZM141.284 83.559C138.034 89.1725 137.798 89.7043 137.945 90.2065C138.123 90.7679 137.886 90.9452 136.35 91.5951C136.113 91.7133 135.582 91.9792 135.198 92.186C134.577 92.5701 134.548 92.5997 135.05 92.7474C135.552 92.836 135.523 92.8951 134.873 93.1906C134.459 93.3678 134.341 93.5156 134.577 93.5451C135.316 93.5746 134.341 94.0178 132.982 94.2542C131.889 94.461 131.859 94.4314 132.036 93.7815C132.154 93.3974 132.273 92.8951 132.302 92.6588C132.332 92.4224 132.539 92.0679 132.775 91.8906C133.011 91.6838 133.1 91.4179 132.952 91.1815C132.804 90.9452 132.834 90.8565 133.011 90.9747C133.189 91.0929 133.484 90.7383 133.691 90.2065C133.898 89.7043 134.311 88.7884 134.607 88.1975C134.902 87.6066 135.168 86.8975 135.168 86.6316C135.168 86.3657 135.375 86.0703 135.611 85.9816C135.848 85.8634 135.995 85.6862 135.907 85.568C135.818 85.4203 135.966 85.1248 136.202 84.8589C136.468 84.6226 136.852 83.943 137.088 83.3521L137.532 82.3181H139.777H142.022L141.284 83.559ZM147.666 83.6476C148.936 84.1794 148.552 86.2771 146.897 87.8725C145.893 88.8179 143.5 89.9997 142.525 89.9997C141.993 89.9997 141.963 89.9406 142.407 89.1134C142.672 88.6111 142.791 88.227 142.702 88.227C142.613 88.227 142.791 87.9316 143.145 87.577C143.47 87.2225 143.736 86.7498 143.736 86.543C143.736 86.3066 144.031 85.7453 144.356 85.2726C144.741 84.7703 144.918 84.2385 144.8 83.943C144.652 83.559 144.741 83.4703 145.095 83.618C145.42 83.7362 145.538 83.6771 145.42 83.3817C145.302 83.0567 145.45 83.0271 146.188 83.2044C146.72 83.3226 147.37 83.5294 147.666 83.6476ZM126.925 86.8384C126.63 87.1043 126.6 87.0748 126.777 86.6612C126.866 86.3657 127.043 86.218 127.132 86.3066C127.221 86.3953 127.132 86.6316 126.925 86.8384ZM150.827 88.1975C150.384 89.0838 149.94 89.2316 150.325 88.3748C150.531 87.9611 150.797 87.6361 150.915 87.6361C151.034 87.6361 151.004 87.902 150.827 88.1975ZM124.591 91.2406C124.384 91.4474 124.236 91.477 124.236 91.2997C124.236 90.8861 124.591 90.5315 124.798 90.7383C124.857 90.827 124.768 91.0633 124.591 91.2406ZM120.839 91.1815C121.223 91.3588 121.282 91.4474 120.987 91.4474C120.75 91.4474 120.337 91.3292 120.1 91.1815C119.568 90.827 120.041 90.827 120.839 91.1815Z" fill="#09B183"/>
<path d="M36.902 79.5409C36.5475 79.7772 35.4248 80.1022 34.3907 80.2795C29.1022 81.1067 28.2159 81.284 28.2159 81.4613C28.2159 81.7567 29.6636 82.0817 30.0181 81.8453C30.1954 81.7567 30.284 81.9044 30.2249 82.1999C30.1363 82.6726 30.3431 82.7317 31.8203 82.7612C32.7362 82.7612 33.593 82.8499 33.6816 82.9681C33.7998 83.0862 33.6226 83.7658 33.2976 84.5044C32.6771 85.7748 32.5885 85.8339 30.6681 86.2771C29.5749 86.543 28.0681 86.9566 27.3295 87.193L26 87.6361L27.1818 87.4884C28.0386 87.3702 28.2454 87.3998 27.9204 87.6066C27.5954 87.8429 27.8022 87.9316 28.8068 87.9316C30.1067 87.9611 30.1067 87.9611 29.3977 88.3747C28.7477 88.7293 28.7181 88.7884 29.1908 88.9656C29.4567 89.0838 30.0181 89.0838 30.4317 88.9952L31.1408 88.8179L30.6976 89.9111C30.4613 90.5315 30.1363 91.2701 29.9885 91.536C29.3977 92.5701 27.8613 97.1496 28.0386 97.3268C28.0977 97.3564 28.4227 97.0609 28.7772 96.6178C29.1022 96.1746 29.3977 95.9087 29.3977 96.0269C29.3977 96.145 29.7226 95.8496 30.1067 95.4064C30.8158 94.6087 30.8453 94.6087 30.6681 95.2587C30.4908 95.9678 30.4908 95.9678 31.2885 95.1996C31.7021 94.7564 32.2635 94.0178 32.4999 93.5451C32.7658 93.0428 33.0612 92.6587 33.1794 92.6587C33.5044 92.6587 34.4794 90.6202 34.3021 90.3247C34.2135 90.2065 34.4203 89.7338 34.7453 89.2315C35.0407 88.7588 35.3066 88.4929 35.3066 88.6702C35.3066 88.8179 35.4248 88.7884 35.543 88.5816C35.6907 88.3747 36.6361 88.0793 37.6997 87.902C38.7338 87.7248 40.0042 87.3998 40.477 87.193C40.9792 86.9861 41.5701 86.7498 41.8065 86.6612C42.0428 86.5725 41.8065 86.4839 41.3042 86.4839C40.3292 86.4543 39.9747 86.0407 40.7133 85.7748C41.3633 85.5384 40.7133 85.243 39.1179 85.0953C36.7543 84.8589 36.6952 84.7998 37.4929 83.943C38.0247 83.3817 38.7043 83.0862 40.0929 82.8794C41.0974 82.7021 42.811 82.3772 43.8746 82.1408C47.2132 81.4022 47.2427 81.4613 45.7064 85.0066C44.9087 86.7793 44.495 87.3998 43.7269 87.8134C43.1655 88.1088 42.7519 88.4338 42.7814 88.552C42.811 88.6407 42.5155 89.0247 42.1019 89.3793L41.3633 89.9997L42.1906 89.7043C43.4019 89.2611 43.6382 89.5861 43.0178 90.827C42.7224 91.4179 42.1315 92.7769 41.6883 93.8405C40.9497 95.7019 40.9497 95.7314 41.5997 95.0223C41.9542 94.6087 42.5451 93.8701 42.9292 93.3974L43.5792 92.511L43.2542 93.3974L42.9587 94.2837L43.8451 93.2792C44.3473 92.7178 44.7905 92.1269 44.8791 91.9497C44.9678 91.7429 45.1155 91.7429 45.2928 92.0088C45.4996 92.3338 45.7655 92.1269 46.445 91.152C46.9177 90.4429 47.5086 89.8224 47.7745 89.7634C48.3654 89.6452 50.1381 91.1815 50.9949 92.5406C51.3494 93.1019 51.704 93.5155 51.7631 93.4269C51.8517 93.3383 52.1767 93.3974 52.4721 93.5746C52.9153 93.811 52.9744 93.7519 52.8267 93.3383C52.6494 92.8656 52.679 92.836 53.2108 93.2201C53.5062 93.4565 54.363 94.1951 55.0721 94.8451L56.3721 96.0564L55.7221 94.9632C55.3675 94.3723 54.8653 93.4565 54.5994 92.9246C54.3335 92.4224 53.5062 91.1815 52.738 90.1474L51.3494 88.3157L52.2653 87.9316C52.7676 87.7248 53.4767 87.193 53.8903 86.7793C54.2744 86.3657 54.5107 86.1884 54.3926 86.3952C54.2744 86.6021 54.7471 86.4543 55.4562 86.0703C58.4697 84.3862 58.1447 82.1408 54.6585 80.5749C53.004 79.8363 51.4381 79.659 46.8291 79.6886C39.3543 79.7181 37.877 79.6886 37.6997 79.3931C37.6111 79.2454 37.2566 79.334 36.902 79.5409ZM44.2587 81.3431C44.0519 81.4022 43.6382 81.4022 43.3723 81.3431C43.0769 81.2545 43.2542 81.1954 43.7269 81.1954C44.2291 81.1954 44.436 81.2545 44.2587 81.3431ZM53.004 83.3226C53.4176 83.8248 53.1517 84.0612 50.8472 85.0953C49.5177 85.7157 49.0449 85.8044 48.779 85.5384C48.5427 85.2725 48.5427 85.243 48.8381 85.3907C49.0449 85.5089 49.1927 85.4498 49.2222 85.2135C49.3109 84.3567 49.3699 84.2089 49.9313 83.5885C50.6108 82.8499 52.4721 82.6726 53.004 83.3226ZM52.1472 87.6361C51.9108 87.7839 51.5858 87.9316 51.4085 87.9316C51.2608 87.9316 51.3199 87.7839 51.5563 87.6361C51.7926 87.4884 52.1472 87.3407 52.2949 87.3407C52.4721 87.3407 52.3835 87.4884 52.1472 87.6361Z" fill="#09B183"/>
<path d="M62.7833 79.9545C62.3697 80.0727 61.4242 80.3681 60.6561 80.5749C59.8879 80.7817 59.3561 81.0772 59.4447 81.2544C59.5629 81.4317 59.4152 81.4613 59.0606 81.3135C58.7652 81.1954 58.6175 81.1954 58.7357 81.3135C58.8538 81.4613 58.647 81.7272 58.2925 81.934C57.672 82.2885 57.7607 82.3181 59.0902 82.1703C59.9174 82.0522 60.9811 81.9044 61.4538 81.8158L62.3401 81.6681L61.306 82.4362C60.7447 82.8499 59.9765 83.3226 59.622 83.4703C59.297 83.618 58.7652 84.1203 58.4402 84.5635C58.1448 84.9771 57.6129 85.6271 57.2584 86.0112C56.5198 86.7202 56.3721 87.193 56.963 86.8975C57.1402 86.7793 57.0221 86.9566 56.6971 87.252C55.8698 87.9316 55.338 89.6156 55.4857 91.0042C55.8403 94.0473 60.1833 95.2587 63.5515 93.2496C67.9241 90.6201 70.7604 86.9861 70.7604 83.943C70.7604 81.0476 69.0172 79.6295 65.531 79.6886C64.4378 79.6886 63.1969 79.8068 62.7833 79.9545ZM67.0377 82.6135C67.5991 82.8203 67.7764 83.0862 67.7173 83.5589C67.6877 83.943 67.5991 84.2976 67.5105 84.3862C67.4218 84.4748 66.9787 85.3316 66.4764 86.2771C66.0037 87.2225 65.2355 88.227 64.7923 88.5225C64.3196 88.7884 64.0537 89.0838 64.1424 89.1725C64.231 89.2611 63.7878 89.7338 63.1674 90.177C62.5469 90.6497 61.9265 91.211 61.8083 91.4179C61.6015 91.7133 61.4242 91.6838 61.0401 91.211C60.7447 90.8565 60.3015 90.5906 60.0356 90.5906C59.4447 90.5906 59.2084 89.9111 59.4447 88.7884C59.622 87.902 61.8674 85.3612 64.3492 83.2635C65.59 82.2294 65.8855 82.1703 67.0377 82.6135Z" fill="#09B183"/>
<path d="M63.0787 89.7043C62.8128 89.8815 62.7833 89.9997 62.9901 89.9997C63.1674 89.9997 63.4333 89.852 63.5219 89.7043C63.7583 89.3497 63.6401 89.3497 63.0787 89.7043Z" fill="#09B183"/>
<path d="M61.6015 90.4429C61.1879 90.6793 61.0106 90.8565 61.1879 90.8861C61.3356 90.8861 61.7492 90.6793 62.0742 90.4429C62.7833 89.9111 62.5469 89.8816 61.6015 90.4429Z" fill="#09B183"/>
<path d="M32.0567 83.2044C32.0567 83.3521 32.2044 83.4998 32.3521 83.4998C32.5294 83.4998 32.6476 83.3521 32.6476 83.2044C32.6476 83.0271 32.5294 82.909 32.3521 82.909C32.2044 82.909 32.0567 83.0271 32.0567 83.2044Z" fill="#09B183"/>
<path d="M98.0893 86.3066C95.578 86.868 94.7803 87.2225 94.3962 87.9316C94.1008 88.4634 94.1894 88.5816 95.0758 88.9656C96.1689 89.4088 101.192 89.2906 101.487 88.8179C101.576 88.6702 102.226 88.552 102.905 88.5816C103.821 88.5816 104.294 88.4338 104.589 88.0498C104.944 87.5179 104.914 87.4884 103.969 87.3998C103.082 87.3111 103.023 87.252 103.378 86.868C103.644 86.6021 104.471 86.4543 105.682 86.4248C106.982 86.4248 107.366 86.3362 106.953 86.1589C106.037 85.7748 100.069 85.8634 98.0893 86.3066Z" fill="#09B183"/>
<path d="M28.519 35.6045C28.519 30.9726 26.4299 27.7021 17.9825 27.7021C9.5351 27.7021 3.81431 30.9772 3.81431 37.3298C2.33528 35.4239 1.47768 33.1095 1.35787 30.7C1.35787 24.5241 9.16791 21.3426 17.9791 21.3426C29.5133 21.3426 35.7804 26.7921 35.7804 35.9636V68.4806C33.8848 67.6788 31.844 67.277 29.7858 67.3004C25.6066 67.3004 21.7934 68.938 16.8024 68.938C8.53747 68.938 0 65.395 0 55.5861C0 38.0573 25.3399 44.3233 28.519 35.6045ZM28.7903 42.7793C27.0651 48.8616 7.26837 44.8683 7.26837 55.6762C7.26837 59.673 10.2662 63.1247 18.0762 63.1247C21.7972 63.2108 25.4808 62.3665 28.7928 60.6683L28.7903 42.7793Z" fill="black"/>
<path d="M99.3969 35.6045C99.3969 30.9726 97.3078 27.7021 88.8603 27.7021C80.4129 27.7021 74.6921 30.9772 74.6921 37.3298C73.2131 35.4239 72.3555 33.1095 72.2357 30.7C72.2357 24.5241 80.0469 21.3426 88.8569 21.3426C100.392 21.3426 106.659 26.7921 106.659 35.9636V68.4806C104.764 67.6787 102.723 67.2769 100.665 67.3004C96.4879 67.3004 92.6724 68.938 87.6814 68.938C79.4164 68.938 70.879 65.395 70.879 55.5861C70.8778 38.0573 96.2177 44.3233 99.3969 35.6045ZM99.6694 42.7793C97.9442 48.8616 78.1473 44.8683 78.1473 55.6762C78.1473 59.673 81.1452 63.1247 88.9552 63.1247C92.6765 63.211 96.3605 62.3667 99.6729 60.6683L99.6694 42.7793Z" fill="black"/>
<path d="M69.8847 55.585C69.8311 53.4599 70.2926 51.3533 71.2299 49.4453V26.3395C71.2299 21.7988 63.9638 21.7988 63.9638 21.7988V60.9444C60.4867 62.2733 56.7865 62.921 53.0647 62.8522C44.9811 62.8522 42.0697 59.5771 42.0697 53.9509V26.3395C42.0697 21.8947 34.8038 21.7988 34.8038 21.7988V55.3136C34.8038 66.0302 43.5236 68.938 51.7874 68.938C56.9644 68.938 60.9601 67.0303 65.3206 67.0303C67.3778 67.0229 69.4052 67.5218 71.224 68.483V61.6486C70.3043 59.7617 69.8453 57.6836 69.8847 55.585V55.585Z" fill="black"/>
<path d="M170.27 35.6045C170.27 30.9726 168.181 27.7021 159.735 27.7021C151.288 27.7021 145.565 30.9772 145.565 37.3298C144.086 35.4238 143.229 33.1094 143.109 30.7C143.109 24.5241 150.92 21.3426 159.73 21.3426C171.264 21.3426 177.531 26.7921 177.531 35.9636V68.4806C175.636 67.6787 173.595 67.2769 171.537 67.3004C167.359 67.3004 163.544 68.938 158.553 68.938C150.287 68.938 141.75 65.395 141.75 55.5861C141.754 38.0573 167.094 44.3233 170.27 35.6045ZM170.543 42.7793C168.816 48.8616 149.02 44.8683 149.02 55.6762C149.02 59.673 152.017 63.1247 159.828 63.1247C163.55 63.2109 167.234 62.3666 170.546 60.6683L170.543 42.7793Z" fill="black"/>
<path d="M140.762 55.5849C140.709 53.4595 141.171 51.3526 142.108 49.4441V35.6946C142.108 26.7032 134.752 21.345 126.213 21.345C115.218 21.345 112.045 26.3406 112.045 26.3406C112.045 26.3406 112.952 24.2516 112.952 18.0757V5.45019C112.952 -0.180641 106.231 0.000663639 105.687 0.000663639V63.9411C105.687 68.483 112.952 68.483 112.952 68.483V36.1496C112.952 30.886 119.035 27.2495 125.033 27.2495C130.663 27.2495 134.842 30.2462 134.842 37.0584V63.9423C134.842 68.3929 142.108 68.4842 142.108 68.4842V61.6509C141.185 59.7639 140.724 57.6849 140.762 55.5849V55.5849Z" fill="black"/>
</svg>
