<svg xmlns="http://www.w3.org/2000/svg" width="20" height="19.999" viewBox="0 0 20 19.999">
  <g id="icone" transform="translate(0 0)">
    <path id="Caminho_113" data-name="Caminho 113" d="M19.488,14.8l-2.643-2.643a1.745,1.745,0,0,0-2.47,0L12.526,14c-.254.254-2.032-.273-4.138-2.379A10.79,10.79,0,0,1,6.282,8.8c-.38-.8-.346-1.235-.272-1.309l1.85-1.85a1.748,1.748,0,0,0,0-2.47L5.217.526a1.748,1.748,0,0,0-2.47,0L.9,2.376C-.207,3.48-.295,5.406.651,7.8c2.388,6.041,9.934,12.215,14.531,12.215a3.35,3.35,0,0,0,2.456-.9l1.85-1.85A1.745,1.745,0,0,0,19.488,14.8ZM4.333,1.409,6.976,4.052a.5.5,0,0,1,0,.7l-.615.615L3.016,2.025l.615-.615a.5.5,0,0,1,.7,0ZM12.675,18.2A22.169,22.169,0,0,1,1.813,7.339c-.74-1.873-.752-3.36-.032-4.08l.351-.351L5.477,6.253,5.126,6.6C2.778,8.952,11.06,17.238,13.41,14.888l.351-.351,3.345,3.345-.351.351c-.72.72-2.207.708-4.08-.032Zm5.93-1.818L17.989,17l-3.345-3.345.615-.615a.5.5,0,0,1,.7,0L18.6,15.681A.5.5,0,0,1,18.6,16.383Z" transform="translate(0 -0.015)"/>
    <path id="Caminho_114" data-name="Caminho 114" d="M272.617,170.845a.876.876,0,0,1,.875.875.625.625,0,0,0,1.25,0,2.127,2.127,0,0,0-2.125-2.125.625.625,0,0,0,0,1.25Z" transform="translate(-261.367 -162.971)"/>
    <path id="Caminho_115" data-name="Caminho 115" d="M272.617,94.044a3.879,3.879,0,0,1,3.875,3.875.625.625,0,0,0,1.25,0,5.131,5.131,0,0,0-5.125-5.125.625.625,0,0,0,0,1.25Z" transform="translate(-261.367 -89.17)"/>
    <path id="Caminho_116" data-name="Caminho 116" d="M272.617,17.244a6.883,6.883,0,0,1,6.875,6.875.625.625,0,1,0,1.25,0,8.134,8.134,0,0,0-8.125-8.125.625.625,0,1,0,0,1.25Z" transform="translate(-261.367 -15.37)"/>
  </g>
</svg>
