<svg xmlns="http://www.w3.org/2000/svg" width="20" height="20" viewBox="0 0 20 20">
  <g id="Grupo_485" data-name="Grupo 485" transform="translate(0 0)">
    <path id="Caminho_5" data-name="Caminho 5" d="M10,20a10,10,0,1,1,7.646-3.555,10.1,10.1,0,0,1-1.18,1.183A10,10,0,0,1,10,20ZM10,1.25A8.751,8.751,0,0,0,3.309,15.639a8.853,8.853,0,0,0,1.033,1.036,8.751,8.751,0,0,0,11.316,0,8.851,8.851,0,0,0,1.034-1.036A8.751,8.751,0,0,0,10,1.25Z" transform="translate(0 0)"/>
    <path id="Caminho_6" data-name="Caminho 6" d="M163.75,71.5a3.75,3.75,0,1,1,3.75-3.75A3.754,3.754,0,0,1,163.75,71.5Zm0-6.25a2.5,2.5,0,1,0,2.5,2.5A2.5,2.5,0,0,0,163.75,65.25Z" transform="translate(-153.75 -61.5)"/>
    <path id="Caminho_7" data-name="Caminho 7" d="M92.938,233.027a.626.626,0,0,1-.607-.777,5.63,5.63,0,0,0-5.374-7h-.165a5.63,5.63,0,0,0-5.374,7,.625.625,0,0,1-1.212.3A6.877,6.877,0,0,1,86.778,224h.195a6.88,6.88,0,0,1,6.571,8.553A.625.625,0,0,1,92.938,233.027Z" transform="translate(-76.875 -215.25)"/>
  </g>
</svg>
